<svg width="512" height="512" viewBox="0 0 512 512" xmlns="http://www.w3.org/2000/svg">
  <defs>
    <linearGradient id="grad" x1="0%" y1="0%" x2="100%" y2="100%">
      <stop offset="0%" stop-color="#0ea5e9"/>
      <stop offset="100%" stop-color="#6366f1"/>
    </linearGradient>
  </defs>
  <rect width="512" height="512" rx="120" fill="url(#grad)"/>
  <path d="M354 147c-22 0-41 7-57 20-15 13-25 30-31 50-6 21-9 46-9 75v8h66v-8c0-17 4-30 11-39 7-9 17-14 31-14 12 0 22 3 30 10 8 6 12 15 12 25 0 15-7 26-20 33-13 6-32 10-58 10v58h44c-2 24-10 43-24 56-14 12-33 19-57 19-28 0-50-9-65-27-15-19-22-46-22-83v-22h-58v-55h58v-19c0-49 12-86 35-112 24-26 56-39 96-39 14 0 27 1 39 4l-12 55c-6-1-12-2-19-2z" fill="#fefefe"/>
</svg>
